<svg id="Capa_1" enable-background="new 0 0 510 510" height="512" viewBox="0 0 510 510" width="512" xmlns="http://www.w3.org/2000/svg"><path d="m497.006 365.167c1.976-5.248.851-11.319-3.121-15.548-3.702-3.94-4.139-3.369-36.604-12.961 33.338-77.797 16.996-171.591-49.486-233.387 25.935-18.273 28.65-18.837 30.633-25.563 1.646-5.611-.109-11.58-4.379-15.405-41.767-37.414-102.878-62.303-167.008-62.303-140.932 0-255 114.047-255 255 0 61.406 21.979 121.508 64 168.963v56.037c0 16.542 13.458 30 30 30h322c16.542 0 30-13.458 30-30v-56.049c19.639-22.184 35.468-49.471 38.965-58.784zm-68.732-37.079-218.248-64.479c.07-6.542-.972-12.784-3.096-18.818l175.73-123.81c61.627 53.041 76.896 138.03 45.614 207.107zm-248.233-65.088c0 13.785-11.215 25-25 25s-25-11.215-25-25 11.215-25 25-25 25 11.215 25 25zm87-233c47.576 0 93.751 15.071 131.975 42.759-212.064 149.409-31.725 22.351-209.386 147.52-30.478-24.724-76.672-10.386-87.493 27.721h-59.976c3.712-120.838 103.158-218 224.88-218zm-172.063 370c-29.262-34.675-47.18-77.063-51.757-122h58.916c12.901 45.429 73.773 54.718 99.369 14.373 35.199 10.399 238.884 70.578 259.528 76.677-6.423 10.904-13.76 21.252-21.943 30.95zm333.063 80h-322v-50h322.004c.015 51.066.096 50-.004 50z"/></svg>