<?xml version="1.0" ?>
<svg xmlns="http://www.w3.org/2000/svg" viewBox="0 0 1140 622">
	<circle r="1" cx="84" cy="196" fill="rgba(255, 255, 255, 0.3)"/>
	<circle r="1" cx="893" cy="684" fill="rgba(255, 255, 255, 0.3)"/>
	<circle r="1" cx="596" cy="815" fill="rgba(255, 255, 255, 0.3)"/>
	<circle r="1" cx="405" cy="614" fill="rgba(255, 255, 255, 0.3)"/>
	<circle r="1" cx="293" cy="241" fill="rgba(255, 255, 255, 0.3)"/>
	<circle r="1" cx="558" cy="67" fill="rgba(255, 255, 255, 0.3)"/>
	<circle r="1" cx="569" cy="655" fill="rgba(255, 255, 255, 0.3)"/>
	<circle r="1" cx="175" cy="317" fill="rgba(255, 255, 255, 0.3)"/>
	<circle r="1" cx="345" cy="737" fill="rgba(255, 255, 255, 0.3)"/>
	<circle r="1" cx="264" cy="473" fill="rgba(255, 255, 255, 0.3)"/>
	<circle r="1" cx="508" cy="215" fill="rgba(255, 255, 255, 0.3)"/>
	<circle r="1" cx="672" cy="507" fill="rgba(255, 255, 255, 0.3)"/>
	<circle r="1" cx="419" cy="66" fill="rgba(255, 255, 255, 0.3)"/>
	<circle r="1" cx="761" cy="842" fill="rgba(255, 255, 255, 0.3)"/>
	<circle r="1" cx="42" cy="363" fill="rgba(255, 255, 255, 0.3)"/>
	<circle r="1" cx="551" cy="261" fill="rgba(255, 255, 255, 0.3)"/>
	<circle r="1" cx="502" cy="605" fill="rgba(255, 255, 255, 0.3)"/>
	<circle r="1" cx="72" cy="658" fill="rgba(255, 255, 255, 0.3)"/>
	<circle r="1" cx="254" cy="483" fill="rgba(255, 255, 255, 0.3)"/>
	<circle r="1" cx="872" cy="462" fill="rgba(255, 255, 255, 0.3)"/>
	<circle r="1" cx="479" cy="523" fill="rgba(255, 255, 255, 0.3)"/>
	<circle r="1" cx="833" cy="769" fill="rgba(255, 255, 255, 0.3)"/>
	<circle r="1" cx="221" cy="497" fill="rgba(255, 255, 255, 0.3)"/>
	<circle r="1" cx="479" cy="460" fill="rgba(255, 255, 255, 0.3)"/>
	<circle r="1" cx="1024" cy="217" fill="rgba(255, 255, 255, 0.3)"/>
	<circle r="1" cx="38" cy="160" fill="rgba(255, 255, 255, 0.3)"/>
	<circle r="1" cx="360" cy="119" fill="rgba(255, 255, 255, 0.3)"/>
	<circle r="1" cx="394" cy="694" fill="rgba(255, 255, 255, 0.3)"/>
	<circle r="1" cx="377" cy="517" fill="rgba(255, 255, 255, 0.3)"/>
	<circle r="1" cx="326" cy="579" fill="rgba(255, 255, 255, 0.3)"/>
	<circle r="1" cx="795" cy="561" fill="rgba(255, 255, 255, 0.3)"/>
	<circle r="1" cx="1045" cy="596" fill="rgba(255, 255, 255, 0.3)"/>
	<circle r="1" cx="349" cy="174" fill="rgba(255, 255, 255, 0.3)"/>
	<circle r="1" cx="639" cy="363" fill="rgba(255, 255, 255, 0.3)"/>
	<circle r="1" cx="948" cy="446" fill="rgba(255, 255, 255, 0.3)"/>
	<circle r="1" cx="937" cy="673" fill="rgba(255, 255, 255, 0.3)"/>
	<circle r="1" cx="352" cy="398" fill="rgba(255, 255, 255, 0.3)"/>
	<circle r="1" cx="830" cy="794" fill="rgba(255, 255, 255, 0.3)"/>
	<circle r="1" cx="76" cy="263" fill="rgba(255, 255, 255, 0.3)"/>
	<circle r="1" cx="331" cy="620" fill="rgba(255, 255, 255, 0.3)"/>
	<circle r="1" cx="1105" cy="500" fill="rgba(255, 255, 255, 0.3)"/>
	<circle r="1" cx="572" cy="826" fill="rgba(255, 255, 255, 0.3)"/>
	<circle r="1" cx="808" cy="515" fill="rgba(255, 255, 255, 0.3)"/>
	<circle r="1" cx="886" cy="446" fill="rgba(255, 255, 255, 0.3)"/>
	<circle r="1" cx="16" cy="67" fill="rgba(255, 255, 255, 0.3)"/>
	<circle r="1" cx="895" cy="438" fill="rgba(255, 255, 255, 0.3)"/>
	<circle r="1" cx="905" cy="709" fill="rgba(255, 255, 255, 0.3)"/>
	<circle r="1" cx="346" cy="836" fill="rgba(255, 255, 255, 0.3)"/>
	<circle r="1" cx="667" cy="401" fill="rgba(255, 255, 255, 0.3)"/>
	<circle r="1" cx="690" cy="195" fill="rgba(255, 255, 255, 0.3)"/>
	<circle r="1" cx="706" cy="708" fill="rgba(255, 255, 255, 0.3)"/>
	<circle r="1" cx="361" cy="539" fill="rgba(255, 255, 255, 0.3)"/>
	<circle r="1" cx="892" cy="691" fill="rgba(255, 255, 255, 0.3)"/>
	<circle r="1" cx="703" cy="478" fill="rgba(255, 255, 255, 0.3)"/>
	<circle r="1" cx="123" cy="447" fill="rgba(255, 255, 255, 0.3)"/>
	<circle r="1" cx="473" cy="172" fill="rgba(255, 255, 255, 0.3)"/>
	<circle r="1" cx="109" cy="261" fill="rgba(255, 255, 255, 0.3)"/>
	<circle r="1" cx="418" cy="819" fill="rgba(255, 255, 255, 0.3)"/>
	<circle r="1" cx="510" cy="689" fill="rgba(255, 255, 255, 0.3)"/>
	<circle r="1" cx="343" cy="433" fill="rgba(255, 255, 255, 0.3)"/>
	<circle r="1" cx="1068" cy="405" fill="rgba(255, 255, 255, 0.3)"/>
	<circle r="1" cx="1061" cy="674" fill="rgba(255, 255, 255, 0.3)"/>
	<circle r="1" cx="471" cy="673" fill="rgba(255, 255, 255, 0.3)"/>
	<circle r="1" cx="985" cy="483" fill="rgba(255, 255, 255, 0.3)"/>
	<circle r="1" cx="723" cy="637" fill="rgba(255, 255, 255, 0.3)"/>
	<circle r="1" cx="553" cy="424" fill="rgba(255, 255, 255, 0.3)"/>
	<circle r="1" cx="137" cy="266" fill="rgba(255, 255, 255, 0.3)"/>
	<circle r="1" cx="1120" cy="161" fill="rgba(255, 255, 255, 0.3)"/>
	<circle r="1" cx="1002" cy="436" fill="rgba(255, 255, 255, 0.3)"/>
	<circle r="1" cx="857" cy="336" fill="rgba(255, 255, 255, 0.3)"/>
	<circle r="1" cx="983" cy="577" fill="rgba(255, 255, 255, 0.3)"/>
	<circle r="1" cx="724" cy="296" fill="rgba(255, 255, 255, 0.3)"/>
	<circle r="1" cx="228" cy="794" fill="rgba(255, 255, 255, 0.3)"/>
	<circle r="1" cx="883" cy="218" fill="rgba(255, 255, 255, 0.3)"/>
	<circle r="1" cx="76" cy="416" fill="rgba(255, 255, 255, 0.3)"/>
	<circle r="1" cx="818" cy="260" fill="rgba(255, 255, 255, 0.3)"/>
	<circle r="1" cx="48" cy="157" fill="rgba(255, 255, 255, 0.3)"/>
	<circle r="1" cx="549" cy="542" fill="rgba(255, 255, 255, 0.3)"/>
	<circle r="1" cx="1121" cy="28" fill="rgba(255, 255, 255, 0.3)"/>
	<circle r="1" cx="41" cy="451" fill="rgba(255, 255, 255, 0.3)"/>
	<circle r="1" cx="546" cy="136" fill="rgba(255, 255, 255, 0.3)"/>
	<circle r="1" cx="670" cy="702" fill="rgba(255, 255, 255, 0.3)"/>
	<circle r="1" cx="807" cy="611" fill="rgba(255, 255, 255, 0.3)"/>
	<circle r="1" cx="191" cy="579" fill="rgba(255, 255, 255, 0.3)"/>
	<circle r="1" cx="324" cy="503" fill="rgba(255, 255, 255, 0.3)"/>
	<circle r="1" cx="797" cy="379" fill="rgba(255, 255, 255, 0.3)"/>
	<circle r="1" cx="548" cy="787" fill="rgba(255, 255, 255, 0.3)"/>
	<circle r="1" cx="1004" cy="437" fill="rgba(255, 255, 255, 0.3)"/>
	<circle r="1" cx="823" cy="84" fill="rgba(255, 255, 255, 0.3)"/>
	<circle r="1" cx="1063" cy="416" fill="rgba(255, 255, 255, 0.3)"/>
	<circle r="1" cx="626" cy="735" fill="rgba(255, 255, 255, 0.3)"/>
	<circle r="1" cx="519" cy="19" fill="rgba(255, 255, 255, 0.3)"/>
	<circle r="1" cx="763" cy="859" fill="rgba(255, 255, 255, 0.3)"/>
	<circle r="1" cx="652" cy="137" fill="rgba(255, 255, 255, 0.3)"/>
	<circle r="1" cx="772" cy="379" fill="rgba(255, 255, 255, 0.3)"/>
	<circle r="1" cx="474" cy="851" fill="rgba(255, 255, 255, 0.3)"/>
	<circle r="1" cx="571" cy="508" fill="rgba(255, 255, 255, 0.3)"/>
	<circle r="1" cx="49" cy="514" fill="rgba(255, 255, 255, 0.3)"/>
	<circle r="1" cx="689" cy="360" fill="rgba(255, 255, 255, 0.3)"/>
	<circle r="1" cx="14" cy="36" fill="rgba(255, 255, 255, 0.3)"/>
	<circle r="1" cx="585" cy="170" fill="rgba(255, 255, 255, 0.3)"/>
	<circle r="1" cx="892" cy="144" fill="rgba(255, 255, 255, 0.3)"/>
	<circle r="1" cx="338" cy="397" fill="rgba(255, 255, 255, 0.3)"/>
	<circle r="1" cx="545" cy="194" fill="rgba(255, 255, 255, 0.3)"/>
	<circle r="1" cx="1051" cy="11" fill="rgba(255, 255, 255, 0.3)"/>
	<circle r="1" cx="372" cy="451" fill="rgba(255, 255, 255, 0.3)"/>
	<circle r="1" cx="812" cy="92" fill="rgba(255, 255, 255, 0.3)"/>
	<circle r="1" cx="248" cy="745" fill="rgba(255, 255, 255, 0.3)"/>
	<circle r="1" cx="727" cy="310" fill="rgba(255, 255, 255, 0.3)"/>
	<circle r="1" cx="914" cy="735" fill="rgba(255, 255, 255, 0.3)"/>
	<circle r="1" cx="455" cy="549" fill="rgba(255, 255, 255, 0.3)"/>
	<circle r="1" cx="1110" cy="682" fill="rgba(255, 255, 255, 0.3)"/>
	<circle r="1" cx="705" cy="484" fill="rgba(255, 255, 255, 0.3)"/>
	<circle r="1" cx="897" cy="396" fill="rgba(255, 255, 255, 0.3)"/>
	<circle r="1" cx="890" cy="546" fill="rgba(255, 255, 255, 0.3)"/>
	<circle r="1" cx="49" cy="602" fill="rgba(255, 255, 255, 0.3)"/>
	<circle r="1" cx="1125" cy="769" fill="rgba(255, 255, 255, 0.3)"/>
	<circle r="1" cx="391" cy="326" fill="rgba(255, 255, 255, 0.3)"/>
	<circle r="1" cx="1123" cy="752" fill="rgba(255, 255, 255, 0.3)"/>
	<circle r="1" cx="999" cy="286" fill="rgba(255, 255, 255, 0.3)"/>
	<circle r="1" cx="1079" cy="584" fill="rgba(255, 255, 255, 0.3)"/>
	<circle r="1" cx="459" cy="746" fill="rgba(255, 255, 255, 0.3)"/>
	<circle r="1" cx="154" cy="656" fill="rgba(255, 255, 255, 0.3)"/>
	<circle r="1" cx="1096" cy="501" fill="rgba(255, 255, 255, 0.3)"/>
	<circle r="1" cx="674" cy="374" fill="rgba(255, 255, 255, 0.3)"/>
	<circle r="1" cx="1013" cy="197" fill="rgba(255, 255, 255, 0.3)"/>
	<circle r="1" cx="975" cy="695" fill="rgba(255, 255, 255, 0.3)"/>
	<circle r="1" cx="25" cy="410" fill="rgba(255, 255, 255, 0.3)"/>
	<circle r="1" cx="623" cy="243" fill="rgba(255, 255, 255, 0.3)"/>
	<circle r="1" cx="1125" cy="310" fill="rgba(255, 255, 255, 0.3)"/>
	<circle r="1" cx="380" cy="664" fill="rgba(255, 255, 255, 0.3)"/>
	<circle r="1" cx="750" cy="759" fill="rgba(255, 255, 255, 0.3)"/>
	<circle r="1" cx="195" cy="300" fill="rgba(255, 255, 255, 0.3)"/>
	<circle r="1" cx="86" cy="582" fill="rgba(255, 255, 255, 0.3)"/>
	<circle r="1" cx="741" cy="324" fill="rgba(255, 255, 255, 0.3)"/>
	<circle r="1" cx="806" cy="155" fill="rgba(255, 255, 255, 0.3)"/>
	<circle r="1" cx="1054" cy="14" fill="rgba(255, 255, 255, 0.3)"/>
	<circle r="1" cx="1001" cy="277" fill="rgba(255, 255, 255, 0.3)"/>
	<circle r="1" cx="485" cy="776" fill="rgba(255, 255, 255, 0.3)"/>
	<circle r="1" cx="778" cy="719" fill="rgba(255, 255, 255, 0.3)"/>
	<circle r="1" cx="224" cy="234" fill="rgba(255, 255, 255, 0.3)"/>
	<circle r="1" cx="1097" cy="300" fill="rgba(255, 255, 255, 0.3)"/>
	<circle r="1" cx="1065" cy="58" fill="rgba(255, 255, 255, 0.3)"/>
	<circle r="1" cx="404" cy="596" fill="rgba(255, 255, 255, 0.3)"/>
	<circle r="1" cx="1025" cy="669" fill="rgba(255, 255, 255, 0.3)"/>
	<circle r="1" cx="1069" cy="104" fill="rgba(255, 255, 255, 0.3)"/>
	<circle r="1" cx="925" cy="97" fill="rgba(255, 255, 255, 0.3)"/>
	<circle r="1" cx="31" cy="253" fill="rgba(255, 255, 255, 0.3)"/>
	<circle r="1" cx="696" cy="733" fill="rgba(255, 255, 255, 0.3)"/>
	<circle r="1" cx="106" cy="430" fill="rgba(255, 255, 255, 0.3)"/>
</svg>
