<svg viewBox="0 0 200 200" xmlns="http://www.w3.org/2000/svg">
  <path style="stroke:#42272c; stroke-width: 2; fill-opacity: 0;"
  d="M32.8,-43.1C47.9,-34.2,69.4,-31.8,77.8,-21.6
    C86.1,-11.3,81.5,6.8,73.2,21.1
    C64.8,35.4,52.8,45.8,40,53
    C27.2,60.2,13.6,64.2,-0.6,65
    C-14.8,65.8,-29.5,63.4,-44.7,56.9
    C-59.8,50.5,-75.3,40,-79.4,26.1
    C-83.5,12.2,-76.1,-5.1,-69.9,-22.2
    C-63.6,-39.3,-58.4,-56.3,-47,-66.5
    C-35.5,-76.6,-17.8,-80,-4.5,-73.8
    C8.8,-67.7,17.7,-52.1,32.8,-43.1Z" 
  transform="translate(95 100)" />
</svg>