<?xml version="1.0" ?>
<svg xmlns="http://www.w3.org/2000/svg" viewBox="0 0 1140 622">
	<circle r="0.4" cx="244" cy="368" fill="rgba(255, 255, 255, 0.3)"/>
	<circle r="0.4" cx="645" cy="740" fill="rgba(255, 255, 255, 0.3)"/>
	<circle r="0.4" cx="775" cy="806" fill="rgba(255, 255, 255, 0.3)"/>
	<circle r="0.4" cx="463" cy="609" fill="rgba(255, 255, 255, 0.3)"/>
	<circle r="0.4" cx="582" cy="683" fill="rgba(255, 255, 255, 0.3)"/>
	<circle r="0.4" cx="783" cy="798" fill="rgba(255, 255, 255, 0.3)"/>
	<circle r="0.4" cx="927" cy="150" fill="rgba(255, 255, 255, 0.3)"/>
	<circle r="0.4" cx="258" cy="300" fill="rgba(255, 255, 255, 0.3)"/>
	<circle r="0.4" cx="850" cy="258" fill="rgba(255, 255, 255, 0.3)"/>
	<circle r="0.4" cx="868" cy="272" fill="rgba(255, 255, 255, 0.3)"/>
	<circle r="0.4" cx="832" cy="11" fill="rgba(255, 255, 255, 0.3)"/>
	<circle r="0.4" cx="105" cy="226" fill="rgba(255, 255, 255, 0.3)"/>
	<circle r="0.4" cx="633" cy="462" fill="rgba(255, 255, 255, 0.3)"/>
	<circle r="0.4" cx="738" cy="240" fill="rgba(255, 255, 255, 0.3)"/>
	<circle r="0.4" cx="1131" cy="283" fill="rgba(255, 255, 255, 0.3)"/>
	<circle r="0.4" cx="957" cy="550" fill="rgba(255, 255, 255, 0.3)"/>
	<circle r="0.4" cx="106" cy="816" fill="rgba(255, 255, 255, 0.3)"/>
	<circle r="0.4" cx="263" cy="402" fill="rgba(255, 255, 255, 0.3)"/>
	<circle r="0.4" cx="298" cy="334" fill="rgba(255, 255, 255, 0.3)"/>
	<circle r="0.4" cx="1103" cy="161" fill="rgba(255, 255, 255, 0.3)"/>
	<circle r="0.4" cx="154" cy="626" fill="rgba(255, 255, 255, 0.3)"/>
	<circle r="0.4" cx="1038" cy="113" fill="rgba(255, 255, 255, 0.3)"/>
	<circle r="0.4" cx="849" cy="499" fill="rgba(255, 255, 255, 0.3)"/>
	<circle r="0.4" cx="518" cy="137" fill="rgba(255, 255, 255, 0.3)"/>
	<circle r="0.4" cx="245" cy="320" fill="rgba(255, 255, 255, 0.3)"/>
	<circle r="0.4" cx="399" cy="209" fill="rgba(255, 255, 255, 0.3)"/>
	<circle r="0.4" cx="19" cy="783" fill="rgba(255, 255, 255, 0.3)"/>
	<circle r="0.4" cx="1031" cy="107" fill="rgba(255, 255, 255, 0.3)"/>
	<circle r="0.4" cx="238" cy="748" fill="rgba(255, 255, 255, 0.3)"/>
	<circle r="0.4" cx="512" cy="20" fill="rgba(255, 255, 255, 0.3)"/>
	<circle r="0.4" cx="982" cy="507" fill="rgba(255, 255, 255, 0.3)"/>
	<circle r="0.4" cx="802" cy="375" fill="rgba(255, 255, 255, 0.3)"/>
	<circle r="0.4" cx="173" cy="771" fill="rgba(255, 255, 255, 0.3)"/>
	<circle r="0.4" cx="249" cy="149" fill="rgba(255, 255, 255, 0.3)"/>
	<circle r="0.4" cx="888" cy="349" fill="rgba(255, 255, 255, 0.3)"/>
	<circle r="0.4" cx="1077" cy="205" fill="rgba(255, 255, 255, 0.3)"/>
	<circle r="0.4" cx="142" cy="575" fill="rgba(255, 255, 255, 0.3)"/>
	<circle r="0.4" cx="533" cy="569" fill="rgba(255, 255, 255, 0.3)"/>
	<circle r="0.4" cx="1070" cy="400" fill="rgba(255, 255, 255, 0.3)"/>
	<circle r="0.4" cx="1139" cy="860" fill="rgba(255, 255, 255, 0.3)"/>
	<circle r="0.4" cx="271" cy="137" fill="rgba(255, 255, 255, 0.3)"/>
	<circle r="0.4" cx="536" cy="370" fill="rgba(255, 255, 255, 0.3)"/>
	<circle r="0.4" cx="923" cy="72" fill="rgba(255, 255, 255, 0.3)"/>
	<circle r="0.4" cx="527" cy="178" fill="rgba(255, 255, 255, 0.3)"/>
	<circle r="0.4" cx="610" cy="94" fill="rgba(255, 255, 255, 0.3)"/>
	<circle r="0.4" cx="950" cy="648" fill="rgba(255, 255, 255, 0.3)"/>
	<circle r="0.4" cx="510" cy="521" fill="rgba(255, 255, 255, 0.3)"/>
	<circle r="0.4" cx="356" cy="826" fill="rgba(255, 255, 255, 0.3)"/>
	<circle r="0.4" cx="76" cy="628" fill="rgba(255, 255, 255, 0.3)"/>
	<circle r="0.4" cx="146" cy="515" fill="rgba(255, 255, 255, 0.3)"/>
	<circle r="0.4" cx="828" cy="682" fill="rgba(255, 255, 255, 0.3)"/>
	<circle r="0.4" cx="1066" cy="209" fill="rgba(255, 255, 255, 0.3)"/>
	<circle r="0.4" cx="893" cy="359" fill="rgba(255, 255, 255, 0.3)"/>
	<circle r="0.4" cx="34" cy="706" fill="rgba(255, 255, 255, 0.3)"/>
	<circle r="0.4" cx="1073" cy="573" fill="rgba(255, 255, 255, 0.3)"/>
	<circle r="0.4" cx="961" cy="717" fill="rgba(255, 255, 255, 0.3)"/>
	<circle r="0.4" cx="1022" cy="24" fill="rgba(255, 255, 255, 0.3)"/>
	<circle r="0.4" cx="981" cy="389" fill="rgba(255, 255, 255, 0.3)"/>
	<circle r="0.4" cx="570" cy="127" fill="rgba(255, 255, 255, 0.3)"/>
	<circle r="0.4" cx="270" cy="503" fill="rgba(255, 255, 255, 0.3)"/>
	<circle r="0.4" cx="316" cy="69" fill="rgba(255, 255, 255, 0.3)"/>
	<circle r="0.4" cx="335" cy="467" fill="rgba(255, 255, 255, 0.3)"/>
	<circle r="0.4" cx="68" cy="821" fill="rgba(255, 255, 255, 0.3)"/>
	<circle r="0.4" cx="656" cy="414" fill="rgba(255, 255, 255, 0.3)"/>
	<circle r="0.4" cx="449" cy="131" fill="rgba(255, 255, 255, 0.3)"/>
	<circle r="0.4" cx="99" cy="562" fill="rgba(255, 255, 255, 0.3)"/>
	<circle r="0.4" cx="238" cy="615" fill="rgba(255, 255, 255, 0.3)"/>
	<circle r="0.4" cx="841" cy="176" fill="rgba(255, 255, 255, 0.3)"/>
	<circle r="0.4" cx="80" cy="518" fill="rgba(255, 255, 255, 0.3)"/>
	<circle r="0.4" cx="298" cy="131" fill="rgba(255, 255, 255, 0.3)"/>
	<circle r="0.4" cx="201" cy="709" fill="rgba(255, 255, 255, 0.3)"/>
	<circle r="0.4" cx="721" cy="797" fill="rgba(255, 255, 255, 0.3)"/>
	<circle r="0.4" cx="1042" cy="705" fill="rgba(255, 255, 255, 0.3)"/>
	<circle r="0.4" cx="44" cy="303" fill="rgba(255, 255, 255, 0.3)"/>
	<circle r="0.4" cx="855" cy="156" fill="rgba(255, 255, 255, 0.3)"/>
	<circle r="0.4" cx="907" cy="608" fill="rgba(255, 255, 255, 0.3)"/>
	<circle r="0.4" cx="47" cy="229" fill="rgba(255, 255, 255, 0.3)"/>
	<circle r="0.4" cx="923" cy="826" fill="rgba(255, 255, 255, 0.3)"/>
	<circle r="0.4" cx="1013" cy="304" fill="rgba(255, 255, 255, 0.3)"/>
	<circle r="0.4" cx="1105" cy="39" fill="rgba(255, 255, 255, 0.3)"/>
	<circle r="0.4" cx="1057" cy="683" fill="rgba(255, 255, 255, 0.3)"/>
	<circle r="0.4" cx="531" cy="280" fill="rgba(255, 255, 255, 0.3)"/>
	<circle r="0.4" cx="1139" cy="186" fill="rgba(255, 255, 255, 0.3)"/>
	<circle r="0.4" cx="1005" cy="173" fill="rgba(255, 255, 255, 0.3)"/>
	<circle r="0.4" cx="558" cy="523" fill="rgba(255, 255, 255, 0.3)"/>
	<circle r="0.4" cx="766" cy="376" fill="rgba(255, 255, 255, 0.3)"/>
	<circle r="0.4" cx="1067" cy="229" fill="rgba(255, 255, 255, 0.3)"/>
	<circle r="0.4" cx="241" cy="420" fill="rgba(255, 255, 255, 0.3)"/>
	<circle r="0.4" cx="1121" cy="531" fill="rgba(255, 255, 255, 0.3)"/>
	<circle r="0.4" cx="642" cy="836" fill="rgba(255, 255, 255, 0.3)"/>
	<circle r="0.4" cx="108" cy="29" fill="rgba(255, 255, 255, 0.3)"/>
	<circle r="0.4" cx="50" cy="709" fill="rgba(255, 255, 255, 0.3)"/>
	<circle r="0.4" cx="895" cy="451" fill="rgba(255, 255, 255, 0.3)"/>
	<circle r="0.4" cx="990" cy="241" fill="rgba(255, 255, 255, 0.3)"/>
	<circle r="0.4" cx="389" cy="433" fill="rgba(255, 255, 255, 0.3)"/>
	<circle r="0.4" cx="573" cy="552" fill="rgba(255, 255, 255, 0.3)"/>
	<circle r="0.4" cx="15" cy="441" fill="rgba(255, 255, 255, 0.3)"/>
	<circle r="0.4" cx="344" cy="570" fill="rgba(255, 255, 255, 0.3)"/>
	<circle r="0.4" cx="481" cy="603" fill="rgba(255, 255, 255, 0.3)"/>
	<circle r="0.4" cx="61" cy="761" fill="rgba(255, 255, 255, 0.3)"/>
	<circle r="0.4" cx="913" cy="244" fill="rgba(255, 255, 255, 0.3)"/>
	<circle r="0.4" cx="945" cy="381" fill="rgba(255, 255, 255, 0.3)"/>
	<circle r="0.4" cx="213" cy="713" fill="rgba(255, 255, 255, 0.3)"/>
	<circle r="0.4" cx="308" cy="284" fill="rgba(255, 255, 255, 0.3)"/>
	<circle r="0.4" cx="1116" cy="559" fill="rgba(255, 255, 255, 0.3)"/>
	<circle r="0.4" cx="307" cy="267" fill="rgba(255, 255, 255, 0.3)"/>
	<circle r="0.4" cx="1031" cy="76" fill="rgba(255, 255, 255, 0.3)"/>
	<circle r="0.4" cx="762" cy="219" fill="rgba(255, 255, 255, 0.3)"/>
	<circle r="0.4" cx="563" cy="727" fill="rgba(255, 255, 255, 0.3)"/>
	<circle r="0.4" cx="169" cy="559" fill="rgba(255, 255, 255, 0.3)"/>
	<circle r="0.4" cx="227" cy="601" fill="rgba(255, 255, 255, 0.3)"/>
	<circle r="0.4" cx="127" cy="79" fill="rgba(255, 255, 255, 0.3)"/>
	<circle r="0.4" cx="1060" cy="311" fill="rgba(255, 255, 255, 0.3)"/>
	<circle r="0.4" cx="770" cy="88" fill="rgba(255, 255, 255, 0.3)"/>
	<circle r="0.4" cx="944" cy="126" fill="rgba(255, 255, 255, 0.3)"/>
	<circle r="0.4" cx="70" cy="727" fill="rgba(255, 255, 255, 0.3)"/>
	<circle r="0.4" cx="790" cy="81" fill="rgba(255, 255, 255, 0.3)"/>
	<circle r="0.4" cx="482" cy="291" fill="rgba(255, 255, 255, 0.3)"/>
	<circle r="0.4" cx="356" cy="110" fill="rgba(255, 255, 255, 0.3)"/>
	<circle r="0.4" cx="1124" cy="444" fill="rgba(255, 255, 255, 0.3)"/>
	<circle r="0.4" cx="745" cy="461" fill="rgba(255, 255, 255, 0.3)"/>
	<circle r="0.4" cx="357" cy="103" fill="rgba(255, 255, 255, 0.3)"/>
	<circle r="0.4" cx="604" cy="853" fill="rgba(255, 255, 255, 0.3)"/>
	<circle r="0.4" cx="995" cy="157" fill="rgba(255, 255, 255, 0.3)"/>
	<circle r="0.4" cx="62" cy="688" fill="rgba(255, 255, 255, 0.3)"/>
	<circle r="0.4" cx="615" cy="164" fill="rgba(255, 255, 255, 0.3)"/>
	<circle r="0.4" cx="324" cy="476" fill="rgba(255, 255, 255, 0.3)"/>
	<circle r="0.4" cx="773" cy="186" fill="rgba(255, 255, 255, 0.3)"/>
	<circle r="0.4" cx="421" cy="716" fill="rgba(255, 255, 255, 0.3)"/>
	<circle r="0.4" cx="222" cy="240" fill="rgba(255, 255, 255, 0.3)"/>
	<circle r="0.4" cx="903" cy="155" fill="rgba(255, 255, 255, 0.3)"/>
	<circle r="0.4" cx="726" cy="78" fill="rgba(255, 255, 255, 0.3)"/>
	<circle r="0.4" cx="56" cy="406" fill="rgba(255, 255, 255, 0.3)"/>
	<circle r="0.4" cx="576" cy="845" fill="rgba(255, 255, 255, 0.3)"/>
	<circle r="0.4" cx="1101" cy="670" fill="rgba(255, 255, 255, 0.3)"/>
	<circle r="0.4" cx="250" cy="599" fill="rgba(255, 255, 255, 0.3)"/>
	<circle r="0.4" cx="533" cy="343" fill="rgba(255, 255, 255, 0.3)"/>
	<circle r="0.4" cx="521" cy="266" fill="rgba(255, 255, 255, 0.3)"/>
	<circle r="0.4" cx="1008" cy="432" fill="rgba(255, 255, 255, 0.3)"/>
	<circle r="0.4" cx="254" cy="854" fill="rgba(255, 255, 255, 0.3)"/>
	<circle r="0.4" cx="482" cy="353" fill="rgba(255, 255, 255, 0.3)"/>
	<circle r="0.4" cx="627" cy="505" fill="rgba(255, 255, 255, 0.3)"/>
	<circle r="0.4" cx="88" cy="477" fill="rgba(255, 255, 255, 0.3)"/>
	<circle r="0.4" cx="260" cy="728" fill="rgba(255, 255, 255, 0.3)"/>
	<circle r="0.4" cx="609" cy="291" fill="rgba(255, 255, 255, 0.3)"/>
	<circle r="0.4" cx="497" cy="171" fill="rgba(255, 255, 255, 0.3)"/>
	<circle r="0.4" cx="465" cy="711" fill="rgba(255, 255, 255, 0.3)"/>
	<circle r="0.4" cx="495" cy="594" fill="rgba(255, 255, 255, 0.3)"/>
	<circle r="0.4" cx="596" cy="284" fill="rgba(255, 255, 255, 0.3)"/>
	<circle r="0.4" cx="54" cy="759" fill="rgba(255, 255, 255, 0.3)"/>
	<circle r="0.4" cx="969" cy="857" fill="rgba(255, 255, 255, 0.3)"/>
	<circle r="0.4" cx="613" cy="815" fill="rgba(255, 255, 255, 0.3)"/>
	<circle r="0.4" cx="212" cy="735" fill="rgba(255, 255, 255, 0.3)"/>
	<circle r="0.4" cx="105" cy="695" fill="rgba(255, 255, 255, 0.3)"/>
	<circle r="0.4" cx="165" cy="324" fill="rgba(255, 255, 255, 0.3)"/>
	<circle r="0.4" cx="852" cy="438" fill="rgba(255, 255, 255, 0.3)"/>
	<circle r="0.4" cx="33" cy="88" fill="rgba(255, 255, 255, 0.3)"/>
	<circle r="0.4" cx="181" cy="747" fill="rgba(255, 255, 255, 0.3)"/>
	<circle r="0.4" cx="976" cy="694" fill="rgba(255, 255, 255, 0.3)"/>
	<circle r="0.4" cx="45" cy="180" fill="rgba(255, 255, 255, 0.3)"/>
	<circle r="0.4" cx="611" cy="515" fill="rgba(255, 255, 255, 0.3)"/>
	<circle r="0.4" cx="593" cy="72" fill="rgba(255, 255, 255, 0.3)"/>
	<circle r="0.4" cx="566" cy="803" fill="rgba(255, 255, 255, 0.3)"/>
	<circle r="0.4" cx="55" cy="555" fill="rgba(255, 255, 255, 0.3)"/>
	<circle r="0.4" cx="236" cy="743" fill="rgba(255, 255, 255, 0.3)"/>
	<circle r="0.4" cx="126" cy="40" fill="rgba(255, 255, 255, 0.3)"/>
	<circle r="0.4" cx="930" cy="351" fill="rgba(255, 255, 255, 0.3)"/>
	<circle r="0.4" cx="381" cy="371" fill="rgba(255, 255, 255, 0.3)"/>
	<circle r="0.4" cx="613" cy="591" fill="rgba(255, 255, 255, 0.3)"/>
	<circle r="0.4" cx="503" cy="64" fill="rgba(255, 255, 255, 0.3)"/>
	<circle r="0.4" cx="918" cy="697" fill="rgba(255, 255, 255, 0.3)"/>
	<circle r="0.4" cx="873" cy="54" fill="rgba(255, 255, 255, 0.3)"/>
	<circle r="0.4" cx="1110" cy="543" fill="rgba(255, 255, 255, 0.3)"/>
	<circle r="0.4" cx="78" cy="428" fill="rgba(255, 255, 255, 0.3)"/>
	<circle r="0.4" cx="740" cy="559" fill="rgba(255, 255, 255, 0.3)"/>
	<circle r="0.4" cx="802" cy="439" fill="rgba(255, 255, 255, 0.3)"/>
	<circle r="0.4" cx="809" cy="804" fill="rgba(255, 255, 255, 0.3)"/>
	<circle r="0.4" cx="313" cy="764" fill="rgba(255, 255, 255, 0.3)"/>
	<circle r="0.4" cx="765" cy="640" fill="rgba(255, 255, 255, 0.3)"/>
	<circle r="0.4" cx="151" cy="185" fill="rgba(255, 255, 255, 0.3)"/>
	<circle r="0.4" cx="561" cy="384" fill="rgba(255, 255, 255, 0.3)"/>
	<circle r="0.4" cx="640" cy="102" fill="rgba(255, 255, 255, 0.3)"/>
	<circle r="0.4" cx="357" cy="549" fill="rgba(255, 255, 255, 0.3)"/>
	<circle r="0.4" cx="594" cy="593" fill="rgba(255, 255, 255, 0.3)"/>
	<circle r="0.4" cx="67" cy="150" fill="rgba(255, 255, 255, 0.3)"/>
	<circle r="0.4" cx="280" cy="678" fill="rgba(255, 255, 255, 0.3)"/>
	<circle r="0.4" cx="498" cy="59" fill="rgba(255, 255, 255, 0.3)"/>
	<circle r="0.4" cx="385" cy="847" fill="rgba(255, 255, 255, 0.3)"/>
	<circle r="0.4" cx="440" cy="670" fill="rgba(255, 255, 255, 0.3)"/>
	<circle r="0.4" cx="837" cy="645" fill="rgba(255, 255, 255, 0.3)"/>
	<circle r="0.4" cx="817" cy="264" fill="rgba(255, 255, 255, 0.3)"/>
	<circle r="0.4" cx="270" cy="637" fill="rgba(255, 255, 255, 0.3)"/>
	<circle r="0.4" cx="236" cy="528" fill="rgba(255, 255, 255, 0.3)"/>
	<circle r="0.4" cx="1009" cy="281" fill="rgba(255, 255, 255, 0.3)"/>
	<circle r="0.4" cx="100" cy="824" fill="rgba(255, 255, 255, 0.3)"/>
	<circle r="0.4" cx="735" cy="746" fill="rgba(255, 255, 255, 0.3)"/>
	<circle r="0.4" cx="870" cy="234" fill="rgba(255, 255, 255, 0.3)"/>
	<circle r="0.4" cx="886" cy="448" fill="rgba(255, 255, 255, 0.3)"/>
	<circle r="0.4" cx="1138" cy="281" fill="rgba(255, 255, 255, 0.3)"/>
	<circle r="0.4" cx="536" cy="840" fill="rgba(255, 255, 255, 0.3)"/>
	<circle r="0.4" cx="724" cy="273" fill="rgba(255, 255, 255, 0.3)"/>
	<circle r="0.4" cx="286" cy="99" fill="rgba(255, 255, 255, 0.3)"/>
	<circle r="0.4" cx="941" cy="827" fill="rgba(255, 255, 255, 0.3)"/>
	<circle r="0.4" cx="265" cy="37" fill="rgba(255, 255, 255, 0.3)"/>
	<circle r="0.4" cx="243" cy="377" fill="rgba(255, 255, 255, 0.3)"/>
	<circle r="0.4" cx="467" cy="544" fill="rgba(255, 255, 255, 0.3)"/>
	<circle r="0.4" cx="1102" cy="123" fill="rgba(255, 255, 255, 0.3)"/>
	<circle r="0.4" cx="118" cy="568" fill="rgba(255, 255, 255, 0.3)"/>
	<circle r="0.4" cx="722" cy="759" fill="rgba(255, 255, 255, 0.3)"/>
	<circle r="0.4" cx="716" cy="228" fill="rgba(255, 255, 255, 0.3)"/>
	<circle r="0.4" cx="232" cy="283" fill="rgba(255, 255, 255, 0.3)"/>
	<circle r="0.4" cx="185" cy="540" fill="rgba(255, 255, 255, 0.3)"/>
	<circle r="0.4" cx="965" cy="139" fill="rgba(255, 255, 255, 0.3)"/>
	<circle r="0.4" cx="752" cy="456" fill="rgba(255, 255, 255, 0.3)"/>
	<circle r="0.4" cx="704" cy="715" fill="rgba(255, 255, 255, 0.3)"/>
	<circle r="0.4" cx="347" cy="745" fill="rgba(255, 255, 255, 0.3)"/>
	<circle r="0.4" cx="902" cy="500" fill="rgba(255, 255, 255, 0.3)"/>
	<circle r="0.4" cx="466" cy="703" fill="rgba(255, 255, 255, 0.3)"/>
	<circle r="0.4" cx="10" cy="136" fill="rgba(255, 255, 255, 0.3)"/>
	<circle r="0.4" cx="46" cy="222" fill="rgba(255, 255, 255, 0.3)"/>
	<circle r="0.4" cx="51" cy="850" fill="rgba(255, 255, 255, 0.3)"/>
	<circle r="0.4" cx="313" cy="378" fill="rgba(255, 255, 255, 0.3)"/>
	<circle r="0.4" cx="680" cy="528" fill="rgba(255, 255, 255, 0.3)"/>
	<circle r="0.4" cx="319" cy="811" fill="rgba(255, 255, 255, 0.3)"/>
	<circle r="0.4" cx="639" cy="422" fill="rgba(255, 255, 255, 0.3)"/>
	<circle r="0.4" cx="19" cy="345" fill="rgba(255, 255, 255, 0.3)"/>
	<circle r="0.4" cx="887" cy="664" fill="rgba(255, 255, 255, 0.3)"/>
	<circle r="0.4" cx="983" cy="533" fill="rgba(255, 255, 255, 0.3)"/>
	<circle r="0.4" cx="370" cy="266" fill="rgba(255, 255, 255, 0.3)"/>
	<circle r="0.4" cx="388" cy="546" fill="rgba(255, 255, 255, 0.3)"/>
	<circle r="0.4" cx="1114" cy="627" fill="rgba(255, 255, 255, 0.3)"/>
	<circle r="0.4" cx="870" cy="810" fill="rgba(255, 255, 255, 0.3)"/>
	<circle r="0.4" cx="216" cy="646" fill="rgba(255, 255, 255, 0.3)"/>
	<circle r="0.4" cx="563" cy="419" fill="rgba(255, 255, 255, 0.3)"/>
	<circle r="0.4" cx="177" cy="464" fill="rgba(255, 255, 255, 0.3)"/>
	<circle r="0.4" cx="530" cy="609" fill="rgba(255, 255, 255, 0.3)"/>
	<circle r="0.4" cx="928" cy="276" fill="rgba(255, 255, 255, 0.3)"/>
	<circle r="0.4" cx="362" cy="98" fill="rgba(255, 255, 255, 0.3)"/>
	<circle r="0.4" cx="364" cy="550" fill="rgba(255, 255, 255, 0.3)"/>
	<circle r="0.4" cx="793" cy="778" fill="rgba(255, 255, 255, 0.3)"/>
	<circle r="0.4" cx="255" cy="58" fill="rgba(255, 255, 255, 0.3)"/>
	<circle r="0.4" cx="996" cy="551" fill="rgba(255, 255, 255, 0.3)"/>
	<circle r="0.4" cx="191" cy="770" fill="rgba(255, 255, 255, 0.3)"/>
	<circle r="0.4" cx="157" cy="450" fill="rgba(255, 255, 255, 0.3)"/>
	<circle r="0.4" cx="1071" cy="214" fill="rgba(255, 255, 255, 0.3)"/>
	<circle r="0.4" cx="770" cy="101" fill="rgba(255, 255, 255, 0.3)"/>
	<circle r="0.4" cx="654" cy="404" fill="rgba(255, 255, 255, 0.3)"/>
	<circle r="0.4" cx="86" cy="842" fill="rgba(255, 255, 255, 0.3)"/>
	<circle r="0.4" cx="600" cy="822" fill="rgba(255, 255, 255, 0.3)"/>
	<circle r="0.4" cx="122" cy="518" fill="rgba(255, 255, 255, 0.3)"/>
	<circle r="0.4" cx="727" cy="821" fill="rgba(255, 255, 255, 0.3)"/>
	<circle r="0.4" cx="473" cy="366" fill="rgba(255, 255, 255, 0.3)"/>
	<circle r="0.4" cx="1059" cy="199" fill="rgba(255, 255, 255, 0.3)"/>
	<circle r="0.4" cx="970" cy="694" fill="rgba(255, 255, 255, 0.3)"/>
	<circle r="0.4" cx="1070" cy="176" fill="rgba(255, 255, 255, 0.3)"/>
	<circle r="0.4" cx="499" cy="657" fill="rgba(255, 255, 255, 0.3)"/>
	<circle r="0.4" cx="669" cy="461" fill="rgba(255, 255, 255, 0.3)"/>
	<circle r="0.4" cx="1119" cy="336" fill="rgba(255, 255, 255, 0.3)"/>
	<circle r="0.4" cx="219" cy="304" fill="rgba(255, 255, 255, 0.3)"/>
	<circle r="0.4" cx="1075" cy="856" fill="rgba(255, 255, 255, 0.3)"/>
	<circle r="0.4" cx="745" cy="65" fill="rgba(255, 255, 255, 0.3)"/>
	<circle r="0.4" cx="1008" cy="782" fill="rgba(255, 255, 255, 0.3)"/>
	<circle r="0.4" cx="173" cy="755" fill="rgba(255, 255, 255, 0.3)"/>
	<circle r="0.4" cx="410" cy="819" fill="rgba(255, 255, 255, 0.3)"/>
	<circle r="0.4" cx="33" cy="820" fill="rgba(255, 255, 255, 0.3)"/>
	<circle r="0.4" cx="551" cy="654" fill="rgba(255, 255, 255, 0.3)"/>
	<circle r="0.4" cx="505" cy="772" fill="rgba(255, 255, 255, 0.3)"/>
	<circle r="0.4" cx="208" cy="83" fill="rgba(255, 255, 255, 0.3)"/>
	<circle r="0.4" cx="414" cy="402" fill="rgba(255, 255, 255, 0.3)"/>
	<circle r="0.4" cx="694" cy="558" fill="rgba(255, 255, 255, 0.3)"/>
	<circle r="0.4" cx="666" cy="352" fill="rgba(255, 255, 255, 0.3)"/>
	<circle r="0.4" cx="147" cy="18" fill="rgba(255, 255, 255, 0.3)"/>
	<circle r="0.4" cx="60" cy="593" fill="rgba(255, 255, 255, 0.3)"/>
	<circle r="0.4" cx="475" cy="602" fill="rgba(255, 255, 255, 0.3)"/>
	<circle r="0.4" cx="643" cy="658" fill="rgba(255, 255, 255, 0.3)"/>
	<circle r="0.4" cx="652" cy="140" fill="rgba(255, 255, 255, 0.3)"/>
	<circle r="0.4" cx="834" cy="808" fill="rgba(255, 255, 255, 0.3)"/>
	<circle r="0.4" cx="1085" cy="724" fill="rgba(255, 255, 255, 0.3)"/>
	<circle r="0.4" cx="1107" cy="579" fill="rgba(255, 255, 255, 0.3)"/>
	<circle r="0.4" cx="543" cy="342" fill="rgba(255, 255, 255, 0.3)"/>
	<circle r="0.4" cx="135" cy="503" fill="rgba(255, 255, 255, 0.3)"/>
	<circle r="0.4" cx="955" cy="118" fill="rgba(255, 255, 255, 0.3)"/>
	<circle r="0.4" cx="737" cy="548" fill="rgba(255, 255, 255, 0.3)"/>
	<circle r="0.4" cx="160" cy="814" fill="rgba(255, 255, 255, 0.3)"/>
	<circle r="0.4" cx="446" cy="858" fill="rgba(255, 255, 255, 0.3)"/>
	<circle r="0.4" cx="365" cy="105" fill="rgba(255, 255, 255, 0.3)"/>
	<circle r="0.4" cx="825" cy="133" fill="rgba(255, 255, 255, 0.3)"/>
	<circle r="0.4" cx="808" cy="748" fill="rgba(255, 255, 255, 0.3)"/>
	<circle r="0.4" cx="1053" cy="207" fill="rgba(255, 255, 255, 0.3)"/>
	<circle r="0.4" cx="550" cy="830" fill="rgba(255, 255, 255, 0.3)"/>
	<circle r="0.4" cx="329" cy="409" fill="rgba(255, 255, 255, 0.3)"/>
	<circle r="0.4" cx="944" cy="46" fill="rgba(255, 255, 255, 0.3)"/>
	<circle r="0.4" cx="495" cy="652" fill="rgba(255, 255, 255, 0.3)"/>
	<circle r="0.4" cx="668" cy="110" fill="rgba(255, 255, 255, 0.3)"/>
	<circle r="0.4" cx="642" cy="467" fill="rgba(255, 255, 255, 0.3)"/>
	<circle r="0.4" cx="244" cy="281" fill="rgba(255, 255, 255, 0.3)"/>
	<circle r="0.4" cx="1095" cy="383" fill="rgba(255, 255, 255, 0.3)"/>
	<circle r="0.4" cx="1007" cy="547" fill="rgba(255, 255, 255, 0.3)"/>
	<circle r="0.4" cx="1103" cy="490" fill="rgba(255, 255, 255, 0.3)"/>
	<circle r="0.4" cx="943" cy="502" fill="rgba(255, 255, 255, 0.3)"/>
	<circle r="0.4" cx="992" cy="105" fill="rgba(255, 255, 255, 0.3)"/>
	<circle r="0.4" cx="263" cy="222" fill="rgba(255, 255, 255, 0.3)"/>
	<circle r="0.4" cx="573" cy="847" fill="rgba(255, 255, 255, 0.3)"/>
	<circle r="0.4" cx="414" cy="448" fill="rgba(255, 255, 255, 0.3)"/>
	<circle r="0.4" cx="233" cy="108" fill="rgba(255, 255, 255, 0.3)"/>
	<circle r="0.4" cx="518" cy="338" fill="rgba(255, 255, 255, 0.3)"/>
	<circle r="0.4" cx="838" cy="221" fill="rgba(255, 255, 255, 0.3)"/>
	<circle r="0.4" cx="628" cy="525" fill="rgba(255, 255, 255, 0.3)"/>
	<circle r="0.4" cx="188" cy="688" fill="rgba(255, 255, 255, 0.3)"/>
	<circle r="0.4" cx="397" cy="796" fill="rgba(255, 255, 255, 0.3)"/>
	<circle r="0.4" cx="266" cy="63" fill="rgba(255, 255, 255, 0.3)"/>
	<circle r="0.4" cx="1135" cy="303" fill="rgba(255, 255, 255, 0.3)"/>
	<circle r="0.4" cx="1112" cy="685" fill="rgba(255, 255, 255, 0.3)"/>
	<circle r="0.4" cx="872" cy="788" fill="rgba(255, 255, 255, 0.3)"/>
	<circle r="0.4" cx="658" cy="225" fill="rgba(255, 255, 255, 0.3)"/>
	<circle r="0.4" cx="948" cy="675" fill="rgba(255, 255, 255, 0.3)"/>
	<circle r="0.4" cx="69" cy="511" fill="rgba(255, 255, 255, 0.3)"/>
	<circle r="0.4" cx="491" cy="702" fill="rgba(255, 255, 255, 0.3)"/>
	<circle r="0.4" cx="1085" cy="362" fill="rgba(255, 255, 255, 0.3)"/>
	<circle r="0.4" cx="386" cy="143" fill="rgba(255, 255, 255, 0.3)"/>
	<circle r="0.4" cx="444" cy="379" fill="rgba(255, 255, 255, 0.3)"/>
	<circle r="0.4" cx="111" cy="216" fill="rgba(255, 255, 255, 0.3)"/>
	<circle r="0.4" cx="1009" cy="661" fill="rgba(255, 255, 255, 0.3)"/>
	<circle r="0.4" cx="557" cy="79" fill="rgba(255, 255, 255, 0.3)"/>
	<circle r="0.4" cx="1038" cy="206" fill="rgba(255, 255, 255, 0.3)"/>
	<circle r="0.4" cx="497" cy="308" fill="rgba(255, 255, 255, 0.3)"/>
	<circle r="0.4" cx="145" cy="784" fill="rgba(255, 255, 255, 0.3)"/>
	<circle r="0.4" cx="342" cy="384" fill="rgba(255, 255, 255, 0.3)"/>
	<circle r="0.4" cx="151" cy="329" fill="rgba(255, 255, 255, 0.3)"/>
	<circle r="0.4" cx="1030" cy="788" fill="rgba(255, 255, 255, 0.3)"/>
	<circle r="0.4" cx="92" cy="678" fill="rgba(255, 255, 255, 0.3)"/>
	<circle r="0.4" cx="887" cy="264" fill="rgba(255, 255, 255, 0.3)"/>
	<circle r="0.4" cx="1095" cy="682" fill="rgba(255, 255, 255, 0.3)"/>
	<circle r="0.4" cx="698" cy="838" fill="rgba(255, 255, 255, 0.3)"/>
	<circle r="0.4" cx="143" cy="814" fill="rgba(255, 255, 255, 0.3)"/>
	<circle r="0.4" cx="985" cy="328" fill="rgba(255, 255, 255, 0.3)"/>
	<circle r="0.4" cx="734" cy="503" fill="rgba(255, 255, 255, 0.3)"/>
	<circle r="0.4" cx="1070" cy="346" fill="rgba(255, 255, 255, 0.3)"/>
	<circle r="0.4" cx="1023" cy="736" fill="rgba(255, 255, 255, 0.3)"/>
	<circle r="0.4" cx="518" cy="115" fill="rgba(255, 255, 255, 0.3)"/>
	<circle r="0.4" cx="1122" cy="605" fill="rgba(255, 255, 255, 0.3)"/>
	<circle r="0.4" cx="215" cy="800" fill="rgba(255, 255, 255, 0.3)"/>
	<circle r="0.4" cx="522" cy="357" fill="rgba(255, 255, 255, 0.3)"/>
	<circle r="0.4" cx="556" cy="159" fill="rgba(255, 255, 255, 0.3)"/>
	<circle r="0.4" cx="396" cy="130" fill="rgba(255, 255, 255, 0.3)"/>
	<circle r="0.4" cx="689" cy="437" fill="rgba(255, 255, 255, 0.3)"/>
	<circle r="0.4" cx="481" cy="305" fill="rgba(255, 255, 255, 0.3)"/>
	<circle r="0.4" cx="582" cy="456" fill="rgba(255, 255, 255, 0.3)"/>
	<circle r="0.4" cx="151" cy="464" fill="rgba(255, 255, 255, 0.3)"/>
	<circle r="0.4" cx="996" cy="807" fill="rgba(255, 255, 255, 0.3)"/>
</svg>
