<?xml version="1.0" encoding="UTF-8" standalone="no"?>
<!DOCTYPE svg PUBLIC "-//W3C//DTD SVG 1.1//EN" "http://www.w3.org/Graphics/SVG/1.1/DTD/svg11.dtd">
<svg version="1.1" xmlns="http://www.w3.org/2000/svg" xmlns:xlink="http://www.w3.org/1999/xlink" preserveAspectRatio="xMidYMid meet" viewBox="0 0 640 640" width="1500" height="1500"><defs><path d="M625.74 112.49C652.78 156.9 587.43 246.12 479.89 311.59C372.35 377.06 263.09 394.16 236.05 349.75C209.01 305.33 274.36 216.12 381.9 150.65C489.44 85.17 598.7 68.08 625.74 112.49Z" id="b5JX8ms7Xq"></path><path d="M729.26 77.15C768.08 140.89 666.26 273.82 502.04 373.8C337.82 473.78 172.99 503.2 134.18 439.45C95.37 375.71 197.18 242.78 361.4 142.8C525.62 42.82 690.45 13.4 729.26 77.15Z" id="d8x38DB65"></path><path d="M474.58 208.6C474.58 240.48 449.87 266.37 419.43 266.37C388.98 266.37 364.27 240.48 364.27 208.6C364.27 176.72 388.98 150.83 419.43 150.83C449.87 150.83 474.58 176.72 474.58 208.6Z" id="e4BwQojBf"></path><path d="M810.99 91.23C873.27 193.52 746.99 384.23 529.18 516.84C311.37 649.46 83.97 674.07 21.7 571.78C-40.58 469.49 85.69 278.78 303.5 146.17C521.31 13.56 748.71 -11.06 810.99 91.23Z" id="e6hItfQZZ"></path></defs><g><g><g><use xlink:href="#b5JX8ms7Xq" opacity="1" fill="#7958b5" fill-opacity="0"></use><g><use xlink:href="#b5JX8ms7Xq" opacity="1" fill-opacity="0" stroke="#717171" stroke-width="1" stroke-opacity="1"></use></g></g><g><use xlink:href="#d8x38DB65" opacity="1" fill="#7858b5" fill-opacity="0"></use><g><use xlink:href="#d8x38DB65" opacity="1" fill-opacity="0" stroke="#717171" stroke-width="1" stroke-opacity="1"></use></g></g><g><use xlink:href="#e4BwQojBf" opacity="1" fill="#b49d00" fill-opacity="1"></use></g><g><use xlink:href="#e6hItfQZZ" opacity="1" fill="#7858b5" fill-opacity="0"></use><g><use xlink:href="#e6hItfQZZ" opacity="1" fill-opacity="0" stroke="#717171" stroke-width="1" stroke-opacity="1"></use></g></g></g></g></svg>